<svg xmlns="http://www.w3.org/2000/svg" viewBox="0 0 512.00003 427.06401"><defs><style>.cls-1{fill:#fff;}</style></defs><g id="Capa_2" data-name="Capa 2"><g id="Capa_1-2" data-name="Capa 1"><path class="cls-1" d="M501.991,85.886,260.991.855a14.99191,14.99191,0,0,0-9.981,0l-241,85.031a14.99979,14.99979,0,0,0-.034,28.279l241,85.677a14.98971,14.98971,0,0,0,10.048,0l241-85.677a15,15,0,0,0-.033-28.279Z"/><path class="cls-1" d="M475.973,286.106V155.266l-30,10.665V286.106a30.11809,30.11809,0,0,0,0,52.242v73.716a15,15,0,0,0,30,0V338.349a30.119,30.119,0,0,0,0-52.243Z"/><path class="cls-1" d="M256,230.709a44.88547,44.88547,0,0,1-15.073-2.6L105.444,179.944v66.008c0,16.149,16.847,29.806,50.073,40.59,28.961,9.4,64.647,14.577,100.483,14.577s71.521-5.177,100.483-14.577c33.226-10.784,50.073-24.441,50.073-40.59V179.944L271.074,228.109A44.89542,44.89542,0,0,1,256,230.709Z"/></g></g></svg>